<?xml version="1.0" encoding="utf-8"?>
<!-- Generator: Adobe Illustrator 19.1.0, SVG Export Plug-In . SVG Version: 6.00 Build 0)  -->
<svg version="1.1" id="Layer_1" xmlns="http://www.w3.org/2000/svg" xmlns:xlink="http://www.w3.org/1999/xlink" x="0px" y="0px"
	 viewBox="0 0 480.3 288.2" enable-background="new 0 0 480.3 288.2" xml:space="preserve">
<g>
	<rect x="146.6" y="153" fill="#0161AA" width="296.6" height="102.1"/>
	<text transform="matrix(1 0 0 1 230.5819 231.8944)" fill="#FFFFFF" font-family="'EurostileBold'" font-size="81.3287px">ACKS</text>
	<text transform="matrix(1 0 0 1 149.9946 242.2088)" fill="#FFFFFF" font-family="'EurostileBold'" font-size="118.6043px">H</text>
</g>
<text transform="matrix(1 0 0 1 44.3574 133.3548)" fill="#0161AA" font-family="'EurostileBold'" font-size="118.6043px">M</text>
<g>
	<defs>
		<rect id="SVGID_1_" x="6.8" y="8.3" width="167.3" height="175.7"/>
	</defs>
	<clipPath id="SVGID_2_">
		<use xlink:href="#SVGID_1_"  overflow="visible"/>
	</clipPath>
	<g clip-path="url(#SVGID_2_)">
		<path fill="#F7B334" d="M166.9,95.2c0,38.6-31.4,70-70,70c-38.6,0-70-31.4-70-70c0-38.6,31.4-70,70-70
			C135.5,25.2,166.9,56.6,166.9,95.2z M96.9,12C51,12,13.7,49.3,13.7,95.2c0,45.9,37.3,83.2,83.2,83.2c45.9,0,83.2-37.3,83.2-83.2
			C180,49.3,142.7,12,96.9,12z"/>
	</g>
</g>
<text transform="matrix(1 0 0 1 157.7388 127.2576)" fill="#0161AA" font-family="'EurostileBold'" font-size="94.8835px">ENLO</text>
</svg>